<?xml version="1.0" encoding="UTF-8" standalone="no"?>
<!DOCTYPE svg PUBLIC "-//W3C//DTD SVG 1.1//EN"
 "http://www.w3.org/Graphics/SVG/1.1/DTD/svg11.dtd">
<!-- Generated by graphviz version 2.47.0 (20210316.0004)
 -->
<!-- Title: dependencies Pages: 1 -->
<svg width="504pt" height="211pt"
 viewBox="0.00 0.00 504.00 211.00" xmlns="http://www.w3.org/2000/svg" xmlns:xlink="http://www.w3.org/1999/xlink">
<g id="graph0" class="graph" transform="scale(1 1) rotate(0) translate(4 207)">
<title>dependencies</title>
<polygon fill="white" stroke="transparent" points="-4,4 -4,-207 500,-207 500,4 -4,4"/>
<text text-anchor="start" x="227.01" y="-42.4" font-family="Times-12" font-weight="bold" font-size="14.00">Legend</text>
<polygon fill="#ffffb3" stroke="transparent" points="14,-10 14,-30 34,-30 34,-10 14,-10"/>
<text text-anchor="start" x="37.63" y="-15.4" font-family="Times-12" font-size="14.00"> &#160;Declarations</text>
<polygon fill="#8dd3c7" stroke="transparent" points="127,-10 127,-30 147,-30 147,-10 127,-10"/>
<text text-anchor="start" x="150.73" y="-15.4" font-family="Times-12" font-size="14.00"> &#160;Module</text>
<polygon fill="#80b1d3" stroke="transparent" points="213,-10 213,-30 233,-30 233,-10 213,-10"/>
<text text-anchor="start" x="236.78" y="-15.4" font-family="Times-12" font-size="14.00"> &#160;Bootstrap</text>
<polygon fill="#fdb462" stroke="transparent" points="310,-10 310,-30 330,-30 330,-10 310,-10"/>
<text text-anchor="start" x="333.67" y="-15.4" font-family="Times-12" font-size="14.00"> &#160;Providers</text>
<polygon fill="#fb8072" stroke="transparent" points="406,-10 406,-30 426,-30 426,-10 406,-10"/>
<text text-anchor="start" x="429.73" y="-15.4" font-family="Times-12" font-size="14.00"> &#160;Exports</text>
<g id="clust1" class="cluster">
<title>cluster_UIServicesModuleService</title>
<polygon fill="none" stroke="black" stroke-dasharray="1,5" points="81,-70 81,-195 415,-195 415,-70 81,-70"/>
</g>
<g id="clust6" class="cluster">
<title>cluster_UIServicesModuleService_providers</title>
<polygon fill="none" stroke="black" points="89,-78 89,-130 407,-130 407,-78 89,-78"/>
</g>
<!-- LoggingService -->
<g id="node1" class="node">
<title>LoggingService</title>
<ellipse fill="#fdb462" stroke="black" cx="326" cy="-104" rx="72.94" ry="18"/>
<text text-anchor="middle" x="326" y="-99.8" font-family="Times,serif" font-size="14.00">LoggingService</text>
</g>
<!-- UIServicesModuleService -->
<g id="node3" class="node">
<title>UIServicesModuleService</title>
<polygon fill="#8dd3c7" stroke="black" points="329.72,-187 326.72,-191 305.72,-191 302.72,-187 166.28,-187 166.28,-151 329.72,-151 329.72,-187"/>
<text text-anchor="middle" x="248" y="-164.8" font-family="Times,serif" font-size="14.00">UIServicesModuleService</text>
</g>
<!-- LoggingService&#45;&gt;UIServicesModuleService -->
<g id="edge1" class="edge">
<title>LoggingService&#45;&gt;UIServicesModuleService</title>
<path fill="none" stroke="black" d="M291.57,-120.07C291.57,-120.07 291.57,-140.82 291.57,-140.82"/>
<polygon fill="black" stroke="black" points="288.07,-140.82 291.57,-150.82 295.07,-140.82 288.07,-140.82"/>
</g>
<!-- ToasterService -->
<g id="node2" class="node">
<title>ToasterService</title>
<ellipse fill="#fdb462" stroke="black" cx="166" cy="-104" rx="68.89" ry="18"/>
<text text-anchor="middle" x="166" y="-99.8" font-family="Times,serif" font-size="14.00">ToasterService</text>
</g>
<!-- ToasterService&#45;&gt;UIServicesModuleService -->
<g id="edge2" class="edge">
<title>ToasterService&#45;&gt;UIServicesModuleService</title>
<path fill="none" stroke="black" d="M200.54,-119.73C200.54,-119.73 200.54,-140.65 200.54,-140.65"/>
<polygon fill="black" stroke="black" points="197.04,-140.65 200.54,-150.65 204.04,-140.65 197.04,-140.65"/>
</g>
</g>
</svg>
