<?xml version="1.0" encoding="UTF-8" standalone="no"?>
<!DOCTYPE svg PUBLIC "-//W3C//DTD SVG 1.1//EN"
 "http://www.w3.org/Graphics/SVG/1.1/DTD/svg11.dtd">
<!-- Generated by graphviz version 2.47.0 (20210316.0004)
 -->
<!-- Title: dependencies Pages: 1 -->
<svg width="504pt" height="284pt"
 viewBox="0.00 0.00 504.00 284.00" xmlns="http://www.w3.org/2000/svg" xmlns:xlink="http://www.w3.org/1999/xlink">
<g id="graph0" class="graph" transform="scale(1 1) rotate(0) translate(4 280)">
<title>dependencies</title>
<polygon fill="white" stroke="transparent" points="-4,4 -4,-280 500,-280 500,4 -4,4"/>
<text text-anchor="start" x="227.01" y="-42.4" font-family="Times-12" font-weight="bold" font-size="14.00">Legend</text>
<polygon fill="#ffffb3" stroke="transparent" points="14,-10 14,-30 34,-30 34,-10 14,-10"/>
<text text-anchor="start" x="37.63" y="-15.4" font-family="Times-12" font-size="14.00"> &#160;Declarations</text>
<polygon fill="#8dd3c7" stroke="transparent" points="127,-10 127,-30 147,-30 147,-10 127,-10"/>
<text text-anchor="start" x="150.73" y="-15.4" font-family="Times-12" font-size="14.00"> &#160;Module</text>
<polygon fill="#80b1d3" stroke="transparent" points="213,-10 213,-30 233,-30 233,-10 213,-10"/>
<text text-anchor="start" x="236.78" y="-15.4" font-family="Times-12" font-size="14.00"> &#160;Bootstrap</text>
<polygon fill="#fdb462" stroke="transparent" points="310,-10 310,-30 330,-30 330,-10 310,-10"/>
<text text-anchor="start" x="333.67" y="-15.4" font-family="Times-12" font-size="14.00"> &#160;Providers</text>
<polygon fill="#fb8072" stroke="transparent" points="406,-10 406,-30 426,-30 426,-10 406,-10"/>
<text text-anchor="start" x="429.73" y="-15.4" font-family="Times-12" font-size="14.00"> &#160;Exports</text>
<g id="clust1" class="cluster">
<title>cluster_AppModule</title>
<polygon fill="none" stroke="black" stroke-dasharray="1,5" points="8,-70 8,-268 146,-268 146,-70 8,-70"/>
</g>
<g id="clust2" class="cluster">
<title>cluster_AppModule_declarations</title>
<polygon fill="none" stroke="black" points="16,-78 16,-130 138,-130 138,-78 16,-78"/>
</g>
<g id="clust6" class="cluster">
<title>cluster_AppModule_bootstrap</title>
<polygon fill="none" stroke="black" points="42,-208 42,-260 112,-260 112,-208 42,-208"/>
</g>
<g id="clust14" class="cluster">
<title>cluster_UIServicesModuleService</title>
<polygon fill="none" stroke="black" stroke-dasharray="1,5" points="154,-70 154,-195 488,-195 488,-70 154,-70"/>
</g>
<g id="clust19" class="cluster">
<title>cluster_UIServicesModuleService_providers</title>
<polygon fill="none" stroke="black" points="162,-78 162,-130 480,-130 480,-78 162,-78"/>
</g>
<!-- AppComponent -->
<g id="node1" class="node">
<title>AppComponent</title>
<polygon fill="#ffffb3" stroke="black" points="129.94,-122 24.06,-122 24.06,-86 129.94,-86 129.94,-122"/>
<text text-anchor="middle" x="77" y="-99.8" font-family="Times,serif" font-size="14.00">AppComponent</text>
</g>
<!-- AppModule -->
<g id="node2" class="node">
<title>AppModule</title>
<polygon fill="#8dd3c7" stroke="black" points="118.66,-187 115.66,-191 94.66,-191 91.66,-187 35.34,-187 35.34,-151 118.66,-151 118.66,-187"/>
<text text-anchor="middle" x="77" y="-164.8" font-family="Times,serif" font-size="14.00">AppModule</text>
</g>
<!-- AppComponent&#45;&gt;AppModule -->
<g id="edge1" class="edge">
<title>AppComponent&#45;&gt;AppModule</title>
<path fill="none" stroke="black" d="M77,-122.11C77,-122.11 77,-140.99 77,-140.99"/>
<polygon fill="black" stroke="black" points="73.5,-140.99 77,-150.99 80.5,-140.99 73.5,-140.99"/>
</g>
<!-- App  -->
<g id="node3" class="node">
<title>App </title>
<polygon fill="#80b1d3" stroke="black" points="104,-252 50,-252 50,-216 104,-216 104,-252"/>
<text text-anchor="middle" x="77" y="-229.8" font-family="Times,serif" font-size="14.00">App </text>
</g>
<!-- AppModule&#45;&gt;App  -->
<g id="edge2" class="edge">
<title>AppModule&#45;&gt;App </title>
<path fill="none" stroke="black" stroke-dasharray="1,5" d="M77,-187.11C77,-187.11 77,-205.99 77,-205.99"/>
<polygon fill="black" stroke="black" points="73.5,-205.99 77,-215.99 80.5,-205.99 73.5,-205.99"/>
</g>
<!-- LoggingService -->
<g id="node4" class="node">
<title>LoggingService</title>
<ellipse fill="#fdb462" stroke="black" cx="399" cy="-104" rx="72.94" ry="18"/>
<text text-anchor="middle" x="399" y="-99.8" font-family="Times,serif" font-size="14.00">LoggingService</text>
</g>
<!-- UIServicesModuleService -->
<g id="node6" class="node">
<title>UIServicesModuleService</title>
<polygon fill="#8dd3c7" stroke="black" points="402.72,-187 399.72,-191 378.72,-191 375.72,-187 239.28,-187 239.28,-151 402.72,-151 402.72,-187"/>
<text text-anchor="middle" x="321" y="-164.8" font-family="Times,serif" font-size="14.00">UIServicesModuleService</text>
</g>
<!-- LoggingService&#45;&gt;UIServicesModuleService -->
<g id="edge3" class="edge">
<title>LoggingService&#45;&gt;UIServicesModuleService</title>
<path fill="none" stroke="black" d="M364.57,-120.07C364.57,-120.07 364.57,-140.82 364.57,-140.82"/>
<polygon fill="black" stroke="black" points="361.07,-140.82 364.57,-150.82 368.07,-140.82 361.07,-140.82"/>
</g>
<!-- ToasterService -->
<g id="node5" class="node">
<title>ToasterService</title>
<ellipse fill="#fdb462" stroke="black" cx="239" cy="-104" rx="68.89" ry="18"/>
<text text-anchor="middle" x="239" y="-99.8" font-family="Times,serif" font-size="14.00">ToasterService</text>
</g>
<!-- ToasterService&#45;&gt;UIServicesModuleService -->
<g id="edge4" class="edge">
<title>ToasterService&#45;&gt;UIServicesModuleService</title>
<path fill="none" stroke="black" d="M273.54,-119.73C273.54,-119.73 273.54,-140.65 273.54,-140.65"/>
<polygon fill="black" stroke="black" points="270.04,-140.65 273.54,-150.65 277.04,-140.65 270.04,-140.65"/>
</g>
</g>
</svg>
